<?xml version="1.0" standalone="no"?><svg xmlns="http://www.w3.org/2000/svg" viewBox="0 0 1440 320"><path fill="#ed1c24" fill-opacity="1" d="M0,224L15,234.7C30,245,60,267,90,240C120,213,150,139,180,138.7C210,139,240,213,270,234.7C300,256,330,224,360,197.3C390,171,420,149,450,149.3C480,149,510,171,540,149.3C570,128,600,64,630,74.7C660,85,690,171,720,192C750,213,780,171,810,128C840,85,870,43,900,42.7C930,43,960,85,990,112C1020,139,1050,149,1080,144C1110,139,1140,117,1170,133.3C1200,149,1230,203,1260,224C1290,245,1320,235,1350,218.7C1380,203,1410,181,1425,170.7L1440,160L1440,0L1425,0C1410,0,1380,0,1350,0C1320,0,1290,0,1260,0C1230,0,1200,0,1170,0C1140,0,1110,0,1080,0C1050,0,1020,0,990,0C960,0,930,0,900,0C870,0,840,0,810,0C780,0,750,0,720,0C690,0,660,0,630,0C600,0,570,0,540,0C510,0,480,0,450,0C420,0,390,0,360,0C330,0,300,0,270,0C240,0,210,0,180,0C150,0,120,0,90,0C60,0,30,0,15,0L0,0Z"></path></svg>